<svg xmlns="http://www.w3.org/2000/svg" version="1.1" xmlns:xlink="http://www.w3.org/1999/xlink" width="1993.3" height="1768"><svg width="1993.3" height="1768" version="1.1" viewBox="0 0 1993.3 1768" xmlns="http://www.w3.org/2000/svg">
 <g>
  <path transform="matrix(.13333 0 0 -.13333 0 1768)" d="m3391.4 8208.9c108.9 37.68 224.01 69.13 347.54 92.08 123.53 20.96 240.73 33.52 355.85 33.52 157.05 2.08 299.37-18.79 424.97-60.72 125.61-41.84 228.17-108.79 301.45-205.12 75.37-96.33 113.05-224.01 115.13-387.3 2.07-142.32 29.27-247.05 83.76-309.85 52.32-62.81 121.35-94.15 205.12-92.08 98.41 2.08 190.49 39.76 278.41 115.12 87.92 73.29 165.36 173.77 232.42 297.3 66.95 125.6 119.27 265.84 159.03 418.64 37.68 154.98 58.65 314.01 58.65 475.22-2.08 261.69-75.37 445.95-221.94 556.81-146.47 108.89-353.77 163.29-619.61 159.13-177.92-2.07-360.1-27.19-546.33-75.36-188.4-48.16-370.58-108.89-548.5-184.25-175.85-77.44-339.13-156.96-487.78-242.8 98.41 406.08 194.73 797.64 286.81 1170.2 94.16 372.69 182.08 717.99 263.77 1036.3 83.77 318.2 159.13 598.6 226.08 841.5 64.89 240.8 121.46 435.4 165.37 582 573.62-71.2 1032-203.1 1373.2-397.8 341.3-194.6 584.1-450 732.75-770.3 148.65-318.2 221.84-699.3 217.68-1143 2.08-37.7 25.12-60.8 69.14-71.2 43.91-10.4 96.22-10.4 154.88 0 60.72 10.4 115.12 29.3 163.28 54.4 48.16 27.2 77.44 56.5 90 92.1l577.77 2361.4c23.05 115.1 8.41 209.4-48.16 280.5-56.47 71.2-144.39 106.8-265.84 108.8-173.77 4.2-427.05 25.2-759.86 64.9-332.9 39.8-732.75 81.7-1201.6 121.5-468.89 39.7-996.43 62.8-1580.5 64.9-755.7-2.1-1417.2-56.5-1982.5-165.4-565.22-108.9-1023.6-259.6-1371.2-450.1-71.211-39.8-117.2-102.6-140.24-182.1-23.047-81.7-25.122-165.4-12.563-249.1 14.641-83.8 41.836-150.7 81.594-198.9 37.683-48.2 83.769-60.7 134.01-35.6 211.45 119.4 445.94 219.9 703.38 303.5 257.54 83.8 554.74 148.7 891.79 198.9l-1683.1-7837.7h-615.46v-615.47h3516.9v615.47h-904.35c58.65 345.46 129.76 715.94 211.45 1113.7 79.52 397.67 169.52 810.1 265.84 1235.1 96.34 424.98 196.82 852.03 301.45 1281.2" fill="#d12429"></path>
  <path transform="matrix(.13333 0 0 -.13333 0 1768)" d="m12055 5093.9c-131.8-37.68-259.6-62.8-383-79.51-123.6-14.64-238.7-20.97-345.5-20.97-314 2.07-592.4 54.39-837.4 157.05-242.8 102.56-454.2 242.8-632.16 424.88-177.92 182.18-324.49 391.55-439.61 630.2s-200.97 496.08-255.37 770.33c-56.57 274.26-83.77 554.74-83.77 843.63 2.08 590.33 58.65 1113.7 167.45 1568 108.89 456.33 257.53 849.92 441.78 1180.7 184.16 328.6 389.38 600.8 617.58 812.2 226 211.4 460.4 368.4 699.1 471 238.6 100.5 469 150.7 686.7 150.7 332.9-2.1 619.6-56.5 860.4-161.2 240.7-106.7 437.4-251.2 592.4-435.3 157-184.3 270-395.8 345.4-632.3 75.3-238.7 110.9-489.9 110.9-755.7 2.1-31.37 16.8-54.42 48.2-66.98 31.4-14.64 69-20.97 115.1-20.97 58.7 0 115.1 12.56 169.6 35.61 52.4 20.97 83.7 52.34 94.2 90.04l489.9 2524.6c6.3 25.1 12.5 52.3 16.7 81.7 6.3 29.3 8.4 56.5 8.4 81.6-2.1 79.5-14.7 138.1-39.8 177.9s-56.6 67.1-92.1 79.6c-37.6 14.7-73.2 20.9-106.8 18.8-131.8 2.1-249.1 14.6-351.7 37.7-104.6 23-211.4 50.2-322.4 81.7-110.9 31.3-242.8 58.5-397.7 81.6-154.9 25.1-349.6 35.6-586.2 37.7-546.3-2.1-1061.3-90-1551.1-261.7-487.8-171.6-942-408.2-1358.7-713.9-418.65-305.6-793.39-661.4-1128.3-1065.5-334.98-404.1-619.72-841.5-856.29-1312.6-236.46-468.9-416.56-954.59-542.17-1454.9-125.6-500.34-188.4-1000.6-190.48-1496.8 2.08-586.18 83.77-1084.4 242.8-1496.8 159.13-412.42 383.14-747.4 669.96-1004.8 286.81-255.46 623.76-443.87 1011-563.14 387.3-119.38 808.13-177.93 1266.5-175.85 370.6 2.08 730.6 27.19 1082.3 75.36 349.6 46.09 672 100.49 965.1 163.29 293 62.8 540.1 117.2 739 163.28 200.9 48.17 334.9 73.29 404 75.36 136.1 0 232.4 25.12 290.9 73.29 58.7 50.24 94.3 121.35 111 215.6l364.3 1620.3c64.8 290.97 125.6 531.7 180 722.28 54.5 192.56 102.6 343.28 146.5 454.24 44 110.97 83.8 190.49 119.4 238.66 33.4 48.16 67 75.36 94.2 79.51 64.8 23.04 119.3 64.88 165.3 129.76 46.1 64.98 71.2 129.86 73.3 196.81 2.1 94.25-16.7 163.29-54.4 209.37-37.7 43.91-104.7 66.96-196.8 66.96h-3391.3l-125.6-615.46h1369.1l-489.9-2487" fill="#d12429"></path>
  <path transform="matrix(.13333 0 0 -.13333 0 1768)" d="m3147.4 4801.4h426.64c21.15 1.5 40.88 18.15 59.03 49.96 18.16 31.74 31.74 69.55 42.32 114.93 10.58 46.89 16.65 90.78 16.65 134.67 0 42.38-4.5 75.61-15.15 102.85-9.08 27.23-25.66 40.88-48.39 42.38h-2151.4c-24.22-1.5-43.88-16.65-60.54-45.39-16.57-27.23-28.73-63.53-36.31-105.92-7.5-43.81-12.08-86.2-12.08-130.09 0-46.88 4.58-84.7 13.66-115 9.07-31.74 22.65-46.89 40.81-48.39h444.79l-771.58-3631h-444.79l-36.309-444.79h2078.7l36.32 444.79h-435.72c39.31 181.55 84.7 387.33 136.17 614.26 49.95 226.94 104.42 462.95 160.38 711.04 55.97 246.59 111.93 490.18 167.9 732.27 55.96 240.52 108.93 467.45 158.89 679.3 51.39 210.28 96.77 393.33 136.16 549.15 39.31 155.82 71.12 270.82 93.78 344.94" fill="#ffffff"></path>
 </g>
 <path transform="matrix(.13333 0 0 -.13333 0 1768)" d="m3147.4 4801.4h426.64c21.15 1.5 40.88 18.15 59.03 49.96 18.16 31.74 31.74 69.55 42.32 114.93 10.58 46.89 16.65 90.78 16.65 134.67 0 42.38-4.5 75.61-15.15 102.85-9.08 27.23-25.66 40.88-48.39 42.38h-2151.4c-24.22-1.5-43.88-16.65-60.54-45.39-16.57-27.23-28.73-63.53-36.31-105.92-7.5-43.81-12.08-86.2-12.08-130.09 0-46.88 4.58-84.7 13.66-115 9.07-31.74 22.65-46.89 40.81-48.39h444.79l-771.58-3631h-444.79l-36.309-444.79h2078.7l36.32 444.79h-435.72c39.31 181.55 84.7 387.33 136.17 614.26 49.95 226.94 104.42 462.95 160.38 711.04 55.97 246.59 111.93 490.18 167.9 732.27 55.96 240.52 108.93 467.45 158.89 679.3 51.39 210.28 96.77 393.33 136.16 549.15 39.31 155.82 71.12 270.82 93.78 344.94z" fill="none" stroke="#ffffff" stroke-miterlimit="22.926" stroke-width="869.5"></path>
 <path transform="matrix(.13333 0 0 -.13333 0 1768)" d="m8320.1 3848.2c-252.66-400.9-449.29-800.31-591.53-1198.2-140.73-397.9-213.35-779.15-216.35-1143.8 1.5-196.7 36.3-361.59 104.42-493.18 68.04-131.66 157.32-230 269.25-296.55 112-66.543 236.01-99.848 370.67-99.848 128.59 0 258.74 33.305 387.33 98.352 130.08 65.043 248.09 166.39 357.02 299.55 108.93 134.66 195.2 304.06 261.74 509.84 65.04 205.78 99.85 447.79 101.35 726.19 0 308.63-13.58 599.11-39.31 874.43-27.23 275.4-65.04 537.14-115 786.73 207.28 273.83 426.64 534.07 658.14 780.66 231.41 245.09 462.91 467.52 695.91 667.22 233 198.13 456.9 363.1 670.2 494.69 37.8 24.23 74.1 45.38 110.4 62.04 36.3 18.15 65.1 28.73 89.3 28.73 13.7 0 21.2-1.5 24.2-7.58 3-6 3-15.07 3-28.73 0-12.08-4.5-27.23-15.1-43.88-9.1-16.66-25.7-37.82-48.4-65.05-175.5-211.78-334.4-449.29-476.5-709.54-142.3-260.24-264.8-535.56-366.2-824.53-102.8-288.99-180-580.96-236-879.01-54.5-296.48-81.7-586.96-83.2-872.93 0-302.56 25.7-580.96 78.7-833.63 53-252.66 134.6-472.02 245.1-658.07 110.4-186.12 251.1-329.86 423.5-431.21 171-102.86 376.8-154.32 614.3-155.82 187.6 1.5 357 36.309 506.8 101.35 151.4 66.543 284.4 152.82 400.9 261.74 116.6 110.43 216.4 229.94 299.6 360.1 83.2 131.58 152.8 263.24 205.8 396.33 54.4 131.66 93.8 254.17 119.5 366.17 25.7 111.93 37.8 204.21 37.8 275.33l-181.6 118c-36.3-98.35-84.7-186.05-145.2-266.25-62-78.69-136.2-142.23-222.4-187.62-87.7-46.89-189.1-71.12-304.1-72.62-128.6 1.5-240.5 46.89-335.8 134.66-95.3 89.28-172.5 210.28-234.6 366.1-62 157.39-107.4 337.36-137.6 540.14-30.3 204.21-45.4 423.57-45.4 656.58 0 239.01 15.1 481.1 45.4 726.19 30.2 245.09 75.6 484.1 136.1 717.11 59.1 233.02 134.7 450.87 222.5 652.07 89.2 202.71 190.6 381.25 307 534.07 116.5 154.32 246.7 273.82 390.4 361.59 143.7 86.2 299.5 130.09 469 131.59 196.7 0 346.4 31.81 450.9 93.78 104.3 60.54 155.8 151.31 157.3 269.31-1.5 110.44-40.8 198.21-119.5 263.25s-187.7 98.35-325.3 99.86c-354-1.51-720.1-69.63-1099.9-202.71-379.7-133.16-758-316.21-1137.7-552.22-378.2-236.01-744.3-511.34-1096.8-823.04-352.52-311.64-677.8-647.5-977.36-1009.1-201.2 580.95-444.79 1062-730.69 1444.8-285.97 384.33-608.19 670.23-965.28 859.35-357.02 189.13-741.28 282.91-1154.3 282.91-211.78 0-411.48-36.32-599.11-107.43-186.05-72.62-351.01-178.48-493.18-320.72-143.74-140.73-255.67-316.2-335.86-524.98-81.7-208.78-122.58-450.87-124.09-726.19 1.51-140.67 21.16-269.33 59.04-385.76 36.31-116.51 78.63-208.78 128.59-278.4 48.39-69.61 92.27-105.92 130.08-107.42 36.31 0 63.55 7.57 81.7 24.23 18.15 16.65 27.23 43.88 27.23 84.69 1.5 322.29 72.62 561.3 210.28 718.62 139.24 157.39 331.36 236.01 579.46 234.51 181.54-1.5 349.51-21.15 505.33-60.54 154.32-37.81 298.05-87.7 429.64-148.24-42.39-456.87-110.43-888.08-205.78-1290.5-95.28-403.98-217.86-771.58-364.6-1102.9-146.73-331.29-319.21-617.26-517.41-856.28-196.63-240.52-419.06-425.13-664.15-555.22-246.59-130.09-515.91-196.7-807.89-198.2-81.69-1.5-142.23-36.31-183.05-102.86-40.88-66.61-62.03-154.31-62.03-260.24 0-104.43 19.65-210.28 55.96-317.71 37.81-108.93 90.77-210.28 160.39-302.55 71.11-93.851 155.81-167.97 254.17-225.43 99.85-57.54 211.78-87.774 337.36-89.274 337.36 3 635.42 87.77 895.66 257.17 260.17 167.97 484.1 406.98 671.73 715.61 187.55 308.64 341.87 673.23 461.44 1093.9 121.01 420.57 210.29 885.02 269.25 1391.8 57.54 505.33 87.77 1042.4 89.27 1606.7 181.55-134.66 346.45-290.48 494.76-465.95 148.24-177.04 279.83-366.17 396.33-567.38 118.01-202.7 219.36-408.48 307.13-618.76" fill="#ffffff"></path>
 <path transform="matrix(.13333 0 0 -.13333 0 1768)" d="m8320.1 3848.2c-252.66-400.9-449.29-800.31-591.53-1198.2-140.73-397.9-213.35-779.15-216.35-1143.8 1.5-196.7 36.3-361.59 104.42-493.18 68.04-131.66 157.32-230 269.25-296.55 112-66.543 236.01-99.848 370.67-99.848 128.59 0 258.74 33.305 387.33 98.352 130.08 65.043 248.09 166.39 357.02 299.55 108.93 134.66 195.2 304.06 261.74 509.84 65.04 205.78 99.85 447.79 101.35 726.19 0 308.63-13.58 599.11-39.31 874.43-27.23 275.4-65.04 537.14-115 786.73 207.28 273.83 426.64 534.07 658.14 780.66 231.41 245.09 462.91 467.52 695.91 667.22 233 198.13 456.9 363.1 670.2 494.69 37.8 24.23 74.1 45.38 110.4 62.04 36.3 18.15 65.1 28.73 89.3 28.73 13.7 0 21.2-1.5 24.2-7.58 3-6 3-15.07 3-28.73 0-12.08-4.5-27.23-15.1-43.88-9.1-16.66-25.7-37.82-48.4-65.05-175.5-211.78-334.4-449.29-476.5-709.54-142.3-260.24-264.8-535.56-366.2-824.53-102.8-288.99-180-580.96-236-879.01-54.5-296.48-81.7-586.96-83.2-872.93 0-302.56 25.7-580.96 78.7-833.63 53-252.66 134.6-472.02 245.1-658.07 110.4-186.12 251.1-329.86 423.5-431.21 171-102.86 376.8-154.32 614.3-155.82 187.6 1.5 357 36.309 506.8 101.35 151.4 66.543 284.4 152.82 400.9 261.74 116.6 110.43 216.4 229.94 299.6 360.1 83.2 131.58 152.8 263.24 205.8 396.33 54.4 131.66 93.8 254.17 119.5 366.17 25.7 111.93 37.8 204.21 37.8 275.33l-181.6 118c-36.3-98.35-84.7-186.05-145.2-266.25-62-78.69-136.2-142.23-222.4-187.62-87.7-46.89-189.1-71.12-304.1-72.62-128.6 1.5-240.5 46.89-335.8 134.66-95.3 89.28-172.5 210.28-234.6 366.1-62 157.39-107.4 337.36-137.6 540.14-30.3 204.21-45.4 423.57-45.4 656.58 0 239.01 15.1 481.1 45.4 726.19 30.2 245.09 75.6 484.1 136.1 717.11 59.1 233.02 134.7 450.87 222.5 652.07 89.2 202.71 190.6 381.25 307 534.07 116.5 154.32 246.7 273.82 390.4 361.59 143.7 86.2 299.5 130.09 469 131.59 196.7 0 346.4 31.81 450.9 93.78 104.3 60.54 155.8 151.31 157.3 269.31-1.5 110.44-40.8 198.21-119.5 263.25s-187.7 98.35-325.3 99.86c-354-1.51-720.1-69.63-1099.9-202.71-379.7-133.16-758-316.21-1137.7-552.22-378.2-236.01-744.3-511.34-1096.8-823.04-352.52-311.64-677.8-647.5-977.36-1009.1-201.2 580.95-444.79 1062-730.69 1444.8-285.97 384.33-608.19 670.23-965.28 859.35-357.02 189.13-741.28 282.91-1154.3 282.91-211.78 0-411.48-36.32-599.11-107.43-186.05-72.62-351.01-178.48-493.18-320.72-143.74-140.73-255.67-316.2-335.86-524.98-81.7-208.78-122.58-450.87-124.09-726.19 1.51-140.67 21.16-269.33 59.04-385.76 36.31-116.51 78.63-208.78 128.59-278.4 48.39-69.61 92.27-105.92 130.08-107.42 36.31 0 63.55 7.57 81.7 24.23 18.15 16.65 27.23 43.88 27.23 84.69 1.5 322.29 72.62 561.3 210.28 718.62 139.24 157.39 331.36 236.01 579.46 234.51 181.54-1.5 349.51-21.15 505.33-60.54 154.32-37.81 298.05-87.7 429.64-148.24-42.39-456.87-110.43-888.08-205.78-1290.5-95.28-403.98-217.86-771.58-364.6-1102.9-146.73-331.29-319.21-617.26-517.41-856.28-196.63-240.52-419.06-425.13-664.15-555.22-246.59-130.09-515.91-196.7-807.89-198.2-81.69-1.5-142.23-36.31-183.05-102.86-40.88-66.61-62.03-154.31-62.03-260.24 0-104.43 19.65-210.28 55.96-317.71 37.81-108.93 90.77-210.28 160.39-302.55 71.11-93.851 155.81-167.97 254.17-225.43 99.85-57.54 211.78-87.774 337.36-89.274 337.36 3 635.42 87.77 895.66 257.17 260.17 167.97 484.1 406.98 671.73 715.61 187.55 308.64 341.87 673.23 461.44 1093.9 121.01 420.57 210.29 885.02 269.25 1391.8 57.54 505.33 87.77 1042.4 89.27 1606.7 181.55-134.66 346.45-290.48 494.76-465.95 148.24-177.04 279.83-366.17 396.33-567.38 118.01-202.7 219.36-408.48 307.13-618.76z" fill="none" stroke="#ffffff" stroke-miterlimit="22.926" stroke-width="869.5"></path>
 <path transform="matrix(.13333 0 0 -.13333 0 1768)" d="m8610.5 2940.5c45.39-183.05 75.62-352.52 93.78-511.34 16.65-157.38 25.73-295.05 24.23-414.55-1.51-148.24-16.66-266.25-46.89-357.02-31.81-92.28-69.62-157.39-116.51-199.71-46.88-40.88-95.27-60.54-145.24-60.54-55.96-1.5-101.35 18.16-136.16 57.47-34.8 40.89-52.96 112-54.46 214.85 1.5 180.05 36.31 378.25 105.93 597.61 68.04 219.36 160.32 443.29 275.32 673.23" fill="#ffffff"></path>
 <path transform="matrix(.13333 0 0 -.13333 0 1768)" d="m8610.5 2940.5c45.39-183.05 75.62-352.52 93.78-511.34 16.65-157.38 25.73-295.05 24.23-414.55-1.51-148.24-16.66-266.25-46.89-357.02-31.81-92.28-69.62-157.39-116.51-199.71-46.88-40.88-95.27-60.54-145.24-60.54-55.96-1.5-101.35 18.16-136.16 57.47-34.8 40.89-52.96 112-54.46 214.85 1.5 180.05 36.31 378.25 105.93 597.61 68.04 219.36 160.32 443.29 275.32 673.23z" fill="none" stroke="#ffffff" stroke-miterlimit="22.926" stroke-width="869.5"></path>
 <path transform="matrix(.13333 0 0 -.13333 0 1768)" d="m3098.8 4801.4h426.63c21.16 1.5 40.89 18.15 59.04 49.96 18.16 31.74 31.74 69.55 42.32 114.93 10.58 46.89 16.65 90.78 16.65 134.67 0 42.38-4.5 75.61-15.15 102.85-9.08 27.23-25.66 40.88-48.39 42.38h-2151.4c-24.22-1.5-43.88-16.65-60.54-45.39-16.58-27.23-28.73-63.53-36.3-105.92-7.51-43.81-12.09-86.2-12.09-130.09 0-46.88 4.58-84.7 13.66-115 9.08-31.74 22.66-46.89 40.81-48.39h444.79l-771.58-3631h-444.79l-36.305-444.79h2078.7l36.31 444.79h-435.71c39.32 181.55 84.7 387.33 136.16 614.26 49.96 226.94 104.43 462.95 160.39 711.04 55.97 246.59 111.93 490.18 167.9 732.27 55.96 240.52 108.93 467.45 158.89 679.3 51.39 210.28 96.78 393.33 136.16 549.15 39.31 155.82 71.12 270.82 93.78 344.94" fill="#ffffff"></path>
 <path transform="matrix(.13333 0 0 -.13333 0 1768)" d="m3098.8 4801.4h426.63c21.16 1.5 40.89 18.15 59.04 49.96 18.16 31.74 31.74 69.55 42.32 114.93 10.58 46.89 16.65 90.78 16.65 134.67 0 42.38-4.5 75.61-15.15 102.85-9.08 27.23-25.66 40.88-48.39 42.38h-2151.4c-24.22-1.5-43.88-16.65-60.54-45.39-16.58-27.23-28.73-63.53-36.3-105.92-7.51-43.81-12.09-86.2-12.09-130.09 0-46.88 4.58-84.7 13.66-115 9.08-31.74 22.66-46.89 40.81-48.39h444.79l-771.58-3631h-444.79l-36.305-444.79h2078.7l36.31 444.79h-435.71c39.32 181.55 84.7 387.33 136.16 614.26 49.96 226.94 104.43 462.95 160.39 711.04 55.97 246.59 111.93 490.18 167.9 732.27 55.96 240.52 108.93 467.45 158.89 679.3 51.39 210.28 96.78 393.33 136.16 549.15 39.31 155.82 71.12 270.82 93.78 344.94z" fill="none" stroke="#d12429" stroke-miterlimit="22.926" stroke-width="357.38"></path>
 <path transform="matrix(.13333 0 0 -.13333 0 1768)" d="m8271.5 3848.2c-252.66-400.9-449.29-800.31-591.53-1198.2-140.73-397.9-213.35-779.15-216.35-1143.8 1.5-196.7 36.31-361.59 104.42-493.18 68.05-131.66 157.32-230 269.25-296.55 112-66.543 236.01-99.848 370.67-99.848 128.59 0 258.74 33.305 387.33 98.352 130.08 65.043 248.09 166.39 357.02 299.55 108.93 134.66 195.2 304.06 261.74 509.84 65.04 205.78 99.85 447.79 101.35 726.19 0 308.63-13.58 599.11-39.31 874.43-27.23 275.4-65.04 537.14-115 786.73 207.28 273.83 426.64 534.07 658.14 780.66 231.45 245.09 462.95 467.52 695.85 667.22 233.1 198.13 457 363.1 670.3 494.69 37.8 24.23 74.1 45.38 110.4 62.04 36.3 18.15 65 28.73 89.3 28.73 13.6 0 21.1-1.5 24.2-7.58 3-6 3-15.07 3-28.73 0-12.08-4.5-27.23-15.1-43.88-9.1-16.66-25.7-37.82-48.4-65.05-175.5-211.78-334.4-449.29-476.6-709.54-142.2-260.24-264.8-535.56-366.1-824.53-102.9-288.99-180.1-580.96-236-879.01-54.5-296.48-81.7-586.96-83.2-872.93 0-302.56 25.7-580.96 78.7-833.63 52.9-252.66 134.6-472.02 245-658.07 110.5-186.12 251.1-329.86 423.6-431.21 171-102.86 376.8-154.32 614.3-155.82 187.6 1.5 357 36.309 506.8 101.35 151.3 66.543 284.4 152.82 400.9 261.74 116.5 110.43 216.4 229.94 299.6 360.1 83.2 131.58 152.8 263.24 205.7 396.33 54.5 131.66 93.8 254.17 119.5 366.17 25.8 111.93 37.9 204.21 37.9 275.33l-181.6 118c-36.3-98.35-84.7-186.05-145.2-266.25-62.1-78.69-136.2-142.23-222.4-187.62-87.8-46.89-189.1-71.12-304.1-72.62-128.6 1.5-240.5 46.89-335.9 134.66-95.3 89.28-172.5 210.28-234.5 366.1-62 157.39-107.4 337.36-137.7 540.14-30.2 204.21-45.3 423.57-45.3 656.58 0 239.01 15.1 481.1 45.3 726.19 30.3 245.09 75.7 484.1 136.2 717.11 59 233.02 134.7 450.87 222.4 652.07 89.2 202.71 190.7 381.25 307.1 534.07 116.5 154.32 246.7 273.82 390.3 361.59 143.8 86.2 299.6 130.09 469 131.59 196.8 0 346.5 31.81 450.9 93.78 104.4 60.54 155.8 151.31 157.3 269.31-1.5 110.44-40.8 198.21-119.5 263.25s-187.6 98.35-325.3 99.86c-354-1.51-720.1-69.63-1099.8-202.71-379.8-133.16-758-316.21-1137.7-552.22-378.3-236.01-744.4-511.34-1096.9-823.04-352.51-311.64-677.8-647.5-977.35-1009.1-201.21 580.95-444.8 1062-730.7 1444.8-285.97 384.33-608.19 670.23-965.28 859.35-357.02 189.13-741.27 282.91-1154.3 282.91-211.78 0-411.48-36.32-599.11-107.43-186.05-72.62-351.01-178.48-493.18-320.72-143.74-140.73-255.67-316.2-335.87-524.98-81.69-208.78-122.58-450.87-124.07-726.19 1.49-140.67 21.15-269.33 59.04-385.76 36.3-116.51 78.62-208.78 128.58-278.4 48.39-69.61 92.27-105.92 130.08-107.42 36.32 0 63.55 7.57 81.7 24.23 18.16 16.65 27.23 43.88 27.23 84.69 1.5 322.29 72.62 561.3 210.28 718.62 139.24 157.39 331.37 236.01 579.46 234.51 181.54-1.5 349.51-21.15 505.33-60.54 154.32-37.81 298.05-87.7 429.64-148.24-42.39-456.87-110.43-888.08-205.78-1290.5-95.28-403.98-217.86-771.58-364.6-1102.9-146.74-331.29-319.21-617.26-517.41-856.28-196.63-240.52-419.06-425.13-664.15-555.22-246.59-130.09-515.91-196.7-807.89-198.2-81.69-1.5-142.24-36.31-183.04-102.86-40.89-66.61-62.05-154.31-62.05-260.24 0-104.43 19.66-210.28 55.97-317.71 37.81-108.93 90.77-210.28 160.39-302.55 71.12-93.851 155.82-167.97 254.17-225.43 99.85-57.54 211.78-87.774 337.36-89.274 337.37 3 635.42 87.77 895.66 257.17 260.17 167.97 484.1 406.98 671.73 715.61 187.55 308.64 341.87 673.23 461.45 1093.9 121 420.57 210.28 885.02 269.25 1391.8 57.53 505.33 87.76 1042.4 89.26 1606.7 181.55-134.66 346.45-290.48 494.76-465.95 148.24-177.04 279.83-366.17 396.33-567.38 118.01-202.7 219.36-408.48 307.13-618.76" fill="#ffffff"></path>
 <path transform="matrix(.13333 0 0 -.13333 0 1768)" d="m8271.5 3848.2c-252.66-400.9-449.29-800.31-591.53-1198.2-140.73-397.9-213.35-779.15-216.35-1143.8 1.5-196.7 36.31-361.59 104.42-493.18 68.05-131.66 157.32-230 269.25-296.55 112-66.543 236.01-99.848 370.67-99.848 128.59 0 258.74 33.305 387.33 98.352 130.08 65.043 248.09 166.39 357.02 299.55 108.93 134.66 195.2 304.06 261.74 509.84 65.04 205.78 99.85 447.79 101.35 726.19 0 308.63-13.58 599.11-39.31 874.43-27.23 275.4-65.04 537.14-115 786.73 207.28 273.83 426.64 534.07 658.14 780.66 231.45 245.09 462.95 467.52 695.85 667.22 233.1 198.13 457 363.1 670.3 494.69 37.8 24.23 74.1 45.38 110.4 62.04 36.3 18.15 65 28.73 89.3 28.73 13.6 0 21.1-1.5 24.2-7.58 3-6 3-15.07 3-28.73 0-12.08-4.5-27.23-15.1-43.88-9.1-16.66-25.7-37.82-48.4-65.05-175.5-211.78-334.4-449.29-476.6-709.54-142.2-260.24-264.8-535.56-366.1-824.53-102.9-288.99-180.1-580.96-236-879.01-54.5-296.48-81.7-586.96-83.2-872.93 0-302.56 25.7-580.96 78.7-833.63 52.9-252.66 134.6-472.02 245-658.07 110.5-186.12 251.1-329.86 423.6-431.21 171-102.86 376.8-154.32 614.3-155.82 187.6 1.5 357 36.309 506.8 101.35 151.3 66.543 284.4 152.82 400.9 261.74 116.5 110.43 216.4 229.94 299.6 360.1 83.2 131.58 152.8 263.24 205.7 396.33 54.5 131.66 93.8 254.17 119.5 366.17 25.8 111.93 37.9 204.21 37.9 275.33l-181.6 118c-36.3-98.35-84.7-186.05-145.2-266.25-62.1-78.69-136.2-142.23-222.4-187.62-87.8-46.89-189.1-71.12-304.1-72.62-128.6 1.5-240.5 46.89-335.9 134.66-95.3 89.28-172.5 210.28-234.5 366.1-62 157.39-107.4 337.36-137.7 540.14-30.2 204.21-45.3 423.57-45.3 656.58 0 239.01 15.1 481.1 45.3 726.19 30.3 245.09 75.7 484.1 136.2 717.11 59 233.02 134.7 450.87 222.4 652.07 89.2 202.71 190.7 381.25 307.1 534.07 116.5 154.32 246.7 273.82 390.3 361.59 143.8 86.2 299.6 130.09 469 131.59 196.8 0 346.5 31.81 450.9 93.78 104.4 60.54 155.8 151.31 157.3 269.31-1.5 110.44-40.8 198.21-119.5 263.25s-187.6 98.35-325.3 99.86c-354-1.51-720.1-69.63-1099.8-202.71-379.8-133.16-758-316.21-1137.7-552.22-378.3-236.01-744.4-511.34-1096.9-823.04-352.51-311.64-677.8-647.5-977.35-1009.1-201.21 580.95-444.8 1062-730.7 1444.8-285.97 384.33-608.19 670.23-965.28 859.35-357.02 189.13-741.27 282.91-1154.3 282.91-211.78 0-411.48-36.32-599.11-107.43-186.05-72.62-351.01-178.48-493.18-320.72-143.74-140.73-255.67-316.2-335.87-524.98-81.69-208.78-122.58-450.87-124.07-726.19 1.49-140.67 21.15-269.33 59.04-385.76 36.3-116.51 78.62-208.78 128.58-278.4 48.39-69.61 92.27-105.92 130.08-107.42 36.32 0 63.55 7.57 81.7 24.23 18.16 16.65 27.23 43.88 27.23 84.69 1.5 322.29 72.62 561.3 210.28 718.62 139.24 157.39 331.37 236.01 579.46 234.51 181.54-1.5 349.51-21.15 505.33-60.54 154.32-37.81 298.05-87.7 429.64-148.24-42.39-456.87-110.43-888.08-205.78-1290.5-95.28-403.98-217.86-771.58-364.6-1102.9-146.74-331.29-319.21-617.26-517.41-856.28-196.63-240.52-419.06-425.13-664.15-555.22-246.59-130.09-515.91-196.7-807.89-198.2-81.69-1.5-142.24-36.31-183.04-102.86-40.89-66.61-62.05-154.31-62.05-260.24 0-104.43 19.66-210.28 55.97-317.71 37.81-108.93 90.77-210.28 160.39-302.55 71.12-93.851 155.82-167.97 254.17-225.43 99.85-57.54 211.78-87.774 337.36-89.274 337.37 3 635.42 87.77 895.66 257.17 260.17 167.97 484.1 406.98 671.73 715.61 187.55 308.64 341.87 673.23 461.45 1093.9 121 420.57 210.28 885.02 269.25 1391.8 57.53 505.33 87.76 1042.4 89.26 1606.7 181.55-134.66 346.45-290.48 494.76-465.95 148.24-177.04 279.83-366.17 396.33-567.38 118.01-202.7 219.36-408.48 307.13-618.76z" fill="none" stroke="#d12429" stroke-miterlimit="22.926" stroke-width="357.38"></path>
 <path transform="matrix(.13333 0 0 -.13333 0 1768)" d="m8562 2940.5c45.39-183.05 75.62-352.52 93.78-511.34 16.65-157.38 25.73-295.05 24.23-414.55-1.5-148.24-16.66-266.25-46.89-357.02-31.81-92.28-69.62-157.39-116.51-199.71-46.88-40.88-95.27-60.54-145.23-60.54-55.97-1.5-101.36 18.16-136.17 57.47-34.8 40.89-52.96 112-54.46 214.85 1.5 180.05 36.31 378.25 105.93 597.61 68.04 219.36 160.32 443.29 275.32 673.23" fill="#ffffff"></path>
 <path transform="matrix(.13333 0 0 -.13333 0 1768)" d="m8562 2940.5c45.39-183.05 75.62-352.52 93.78-511.34 16.65-157.38 25.73-295.05 24.23-414.55-1.5-148.24-16.66-266.25-46.89-357.02-31.81-92.28-69.62-157.39-116.51-199.71-46.88-40.88-95.27-60.54-145.23-60.54-55.97-1.5-101.36 18.16-136.17 57.47-34.8 40.89-52.96 112-54.46 214.85 1.5 180.05 36.31 378.25 105.93 597.61 68.04 219.36 160.32 443.29 275.32 673.23z" fill="none" stroke="#d12429" stroke-miterlimit="22.926" stroke-width="357.38"></path>
</svg><style>@media (prefers-color-scheme: light) { :root { filter: none; } }
@media (prefers-color-scheme: dark) { :root { filter: none; } }
</style></svg>