<svg version="1.1"
     xmlns="http://www.w3.org/2000/svg"
     xmlns:xlink="http://www.w3.org/1999/xlink"
     viewBox="0 0 13 13" preserveAspectRatio="xMidYMid meet">
    <defs id="defs2987">
        <linearGradient id="linearGradient5233">
            <stop style="stop-color:#f4d942;stop-opacity:1;" offset="0" id="stop5235"></stop>
            <stop id="stop5239" offset="0.63517177" style="stop-color:#f9cc2d;stop-opacity:1;"></stop>
            <stop style="stop-color:#d97d0d;stop-opacity:1;" offset="1" id="stop5237"></stop>
        </linearGradient>
        <linearGradient id="linearGradient4675">
            <stop style="stop-color:#000000;stop-opacity:0;" offset="0" id="stop4677"></stop>
            <stop style="stop-color:#000000;stop-opacity:1;" offset="1" id="stop4679"></stop>
        </linearGradient>
        <linearGradient id="linearGradient4043">
            <stop style="stop-color:#f2441d;stop-opacity:1;" offset="0" id="stop4045"></stop>
            <stop style="stop-color:#d97d0d;stop-opacity:1;" offset="1" id="stop4047"></stop>
        </linearGradient>
        <linearGradient id="linearGradient3996">
            <stop style="stop-color:#f4d942;stop-opacity:1;" offset="0" id="stop3998"></stop>
            <stop style="stop-color:#febf18;stop-opacity:0" offset="1" id="stop4000"></stop>
        </linearGradient>
        <linearGradient id="linearGradient3980">
            <stop id="stop3982" offset="0" style="stop-color:#f4d942;stop-opacity:1;"></stop>
            <stop id="stop3984" offset="1" style="stop-color:#febf18;stop-opacity:1;"></stop>
        </linearGradient>
        <linearGradient gradientUnits="userSpaceOnUse" y2="13.575462" x2="7.931848" y1="2.9032302" x1="7.931848"
                        id="linearGradient3986" xlink:href="#linearGradient3980"></linearGradient>
        <linearGradient gradientTransform="translate(-1.8901837,-2.492851)" gradientUnits="userSpaceOnUse"
                        y2="13.627736" x2="8.5760479" y1="2.9881759" x1="8.5760479" id="linearGradient3994"
                        xlink:href="#linearGradient3980"></linearGradient>
        <linearGradient gradientUnits="userSpaceOnUse" y2="13.627736" x2="8.5760479" y1="2.9881759" x1="8.5760479"
                        id="linearGradient3994-1" xlink:href="#linearGradient3980-9"></linearGradient>
        <linearGradient id="linearGradient3980-9">
            <stop id="stop3982-2" offset="0" style="stop-color:#f4d942;stop-opacity:1;"></stop>
            <stop id="stop3984-8" offset="1" style="stop-color:#febf18;stop-opacity:1;"></stop>
        </linearGradient>
        <linearGradient gradientTransform="translate(-1.8901837,-2.492851)" gradientUnits="userSpaceOnUse"
                        y2="3.9154701" x2="11.262372" y1="7.1083541" x1="11.262377" id="linearGradient4060"
                        xlink:href="#linearGradient4043"></linearGradient>
        <filter height="2.0656004" y="-0.5328002" width="1.3552001" x="-0.17759998" id="filter4637">
            <feGaussianBlur id="feGaussianBlur4639" stdDeviation="0.071109403"></feGaussianBlur>
        </filter>
        <filter height="1.7672358" y="-0.38361788" width="1.3383089" x="-0.16915444" id="filter4645">
            <feGaussianBlur id="feGaussianBlur4647" stdDeviation="0.069930342"></feGaussianBlur>
        </filter>
        <filter height="1.4927253" y="-0.24636267" width="1.2525218" x="-0.12626088" id="filter4649">
            <feGaussianBlur id="feGaussianBlur4651" stdDeviation="0.06576087"></feGaussianBlur>
        </filter>
        <filter height="2.2081077" y="-0.60405391" width="2.4421206" x="-0.72106028" id="filter4653">
            <feGaussianBlur id="feGaussianBlur4655" stdDeviation="0.052026612"></feGaussianBlur>
        </filter>
        <filter id="filter4657">
            <feGaussianBlur id="feGaussianBlur4659" stdDeviation="0.04586447"></feGaussianBlur>
        </filter>
        <filter height="2.425528" y="-0.71276402" width="1.4553418" x="-0.22767089" id="filter4707">
            <feGaussianBlur id="feGaussianBlur4709" stdDeviation="0.77760848"></feGaussianBlur>
        </filter>
        <filter id="filter4841">
            <feGaussianBlur id="feGaussianBlur4843" stdDeviation="0.01630744"></feGaussianBlur>
        </filter>
        <filter id="filter4857">
            <feGaussianBlur id="feGaussianBlur4859" stdDeviation="0.032614882"></feGaussianBlur>
        </filter>
        <filter height="1.3055331" y="-0.1527665" width="1.2650952" x="-0.13254759" id="filter4893">
            <feGaussianBlur id="feGaussianBlur4895" stdDeviation="0.066767582"></feGaussianBlur>
        </filter>
        <radialGradient gradientUnits="userSpaceOnUse"
                        gradientTransform="matrix(0.09207325,-0.58896311,1.2714237,0.19876315,-5.0260709,12.948541)"
                        r="3.3465457" fy="8.3402176" fx="12.718921" cy="8.3402176" cx="12.718921"
                        id="radialGradient4908" xlink:href="#linearGradient5233"></radialGradient>
        <radialGradient gradientUnits="userSpaceOnUse"
                        gradientTransform="matrix(0.1315963,-0.52995438,0.80326805,0.19946456,0.39672734,14.783991)"
                        r="3.3465457" fy="8.0393772" fx="13.205226" cy="8.0393772" cx="13.205226"
                        id="radialGradient4908-9" xlink:href="#linearGradient3980-9-1"></radialGradient>
        <linearGradient id="linearGradient3980-9-1">
            <stop id="stop3982-2-5" offset="0" style="stop-color:#f4d942;stop-opacity:1;"></stop>
            <stop id="stop3984-8-2" offset="1" style="stop-color:#febf18;stop-opacity:1;"></stop>
        </linearGradient>
        <filter height="1.2818491" y="-0.1409246" width="1.1294245" x="-0.064712241" id="filter5191">
            <feGaussianBlur id="feGaussianBlur5193" stdDeviation="0.29641174"></feGaussianBlur>
        </filter>
        <filter height="1.810364" y="-0.405182" width="1.4569119" x="-0.22845595" id="filter5257">
            <feGaussianBlur id="feGaussianBlur5259" stdDeviation="0.59523911"></feGaussianBlur>
        </filter>
        <filter height="3.8172367" y="-1.4086183" width="1.5970041" x="-0.298502" id="filter5483">
            <feGaussianBlur id="feGaussianBlur5485" stdDeviation="0.20612576"></feGaussianBlur>
        </filter>
        <filter id="filter5507">
            <feGaussianBlur id="feGaussianBlur5509" stdDeviation="0.10184912"></feGaussianBlur>
        </filter>
        <filter height="1.4813614" y="-0.24068069" width="1.2457973" x="-0.12289867" id="filter5511">
            <feGaussianBlur id="feGaussianBlur5513" stdDeviation="0.3115617"></feGaussianBlur>
        </filter>
        <filter height="2.3085752" y="-0.65428752" width="1.2773017" x="-0.13865086" id="filter5531">
            <feGaussianBlur id="feGaussianBlur5533" stdDeviation="0.095743125"></feGaussianBlur>
        </filter>
    </defs>
    <g transform="translate(-0.11315518,-0.06847538)" style="display:inline" id="layer2">
        <path id="path3208"
              d="M 3.8536282,0.93833698 C 3.533423,1.232079 3.2668344,1.5861342 3.0861314,1.9813077 2.9054284,2.3764812 2.811747,2.8129278 2.828752,3.2471242 2.854872,3.9140574 3.1438973,4.5579924 3.5833312,5.0603667 3.9000891,5.4224941 4.2944929,5.7163636 4.7320936,5.9163073 L 4.5068461,6.2992281 C 4.107652,6.2392972 3.6939773,6.2783231 3.3130342,6.4118519 2.9111973,6.5527044 2.5492371,6.7951107 2.141747,6.9186588 2.020645,6.9553761 1.8955883,6.9813781 1.7690948,6.9850183 1.6426013,6.9886585 1.5143649,6.9693835 1.3984302,6.9186588 1.3094727,6.8797374 1.2295318,6.8233134 1.1468608,6.772384 1.0641899,6.7214545 0.9762287,6.6750404 0.88036086,6.6596242 0.77240764,6.6422646 0.65995555,6.6660641 0.56298428,6.7165797 0.46601301,6.7670953 0.38387965,6.8432339 0.31724206,6.9299212 0.17534408,7.114513 0.10206206,7.3506439 0.11451926,7.583139 c 0.0350272,0.5664967 0.17310128,1.1264638 0.4054455,1.644307 0.23527161,0.5243678 0.56858984,1.006909 0.99108924,1.396535 0.4238437,0.390866 0.9358032,0.68563 1.4866336,0.85594 l 7.5007424,-0.05631 c 0.680816,-0.124431 1.295149,-0.572382 1.621782,-1.182549 0.179986,-0.3362228 0.274331,-0.7132962 0.315347,-1.092451 0.04856,-0.4489196 0.02337,-0.9096487 -0.112624,-1.340223 C 12.215566,7.4684304 12.040094,7.1509874 11.816128,6.8736094 11.52274,6.5102535 11.150739,6.2187409 10.768727,5.9500945 10.483465,5.7494863 10.187941,5.5574226 9.9483283,5.304037 9.7980653,5.1451367 9.671739,4.9636405 9.5749153,4.767545 L 8.3243643,1.7279512 C 8.2355783,1.5617216 8.1456187,1.3961188 8.0544946,1.2311593 7.9637107,1.0668157 7.8710271,0.90202152 7.7504105,0.75813898 7.4643991,0.41695818 7.0378256,0.21664291 6.6016481,0.12744588 6.1789752,0.04101049 5.7375324,0.05049487 5.3177372,0.14997068 4.7724991,0.27917178 4.2665412,0.55954897 3.8536282,0.93833698 Z"
              style="fill:url(#linearGradient3994);fill-opacity:1;stroke:none"></path>
    </g>
    <g transform="translate(-0.11315518,-0.06847538)" style="display:inline;opacity:0.60619465" id="layer6">
        <path transform="matrix(0.78530985,0,0,0.77864748,0.17995406,-0.51054332)" id="path4689"
              d="m 6.4965435,5.6585633 c 1.6793786,0.7954952 1.3037282,0.751301 2.1434175,0.8396893 0.8396893,0.088388 0.9059805,-0.1325825 1.502602,0.1988738 0.596621,0.3314563 1.41644,0.079077 1.504828,0.3221448 0.08839,0.243068 0.534463,0.4703206 0.667046,0.6250002 0.132582,0.1546796 0.58561,0.3121437 -0.753689,0.1928141 -0.853516,-0.076047 -1.130923,-0.04789 -1.7717385,0.075381 C 9.1086214,8.0433496 9.2427826,10.861277 9.047883,9.4865304 9.0310593,9.3678626 7.9493882,9.3948902 7.9493882,9.3948902 L 6.430093,9.0008387 6.0185153,7.1904326 5.1425803,6.8894964 Z"
              style="fill:#d97d0d;fill-opacity:1;stroke:none;filter:url(#filter4707)"></path>
    </g>
    <g transform="translate(-0.11315518,-0.06847538)" style="display:inline" id="layer10">
        <path id="path4945"
              d="m 10.500441,6.225899 c 0.06624,0.6040054 0.732689,0.4822615 1.0625,0.859375 0.326902,0.3737875 0.530629,0.434629 0.6875,1.125 0.08999,0.396052 -0.21875,1.625 -0.453125,1.984375 -0.234375,0.359375 -0.0625,0.25 -0.703125,0.46875 -0.640625,0.21875 -0.640625,0.375 -1.6249997,0.484375 -1.320093,0.146677 -1.359375,0.125 -2.328125,0.125005 -1.3914159,7e-6 -2.390625,-0.03125 -3.625,-0.45313 -1.2512609,-0.427646 -3.35937504,-2.5625 -2.375,-2.78125 0.984375,-0.21875 1.4318654,-0.08021 1.890625,0.09375 0.3282617,0.124473 1.5354884,0.697606 1.8420264,1.094387 0.3609071,0.467156 1.5633413,-0.436115 1.7517236,-0.391262 0.3281261,0.07813 0.34375,0.46875 1.234375,0.187495 0.890625,-0.28125 0.117768,0.221069 0.967909,-0.02183 0.546875,-0.15625 0.596087,0.09214 0.860216,-0.196922 0.3984947,-0.436111 0.4966447,-0.187594 0.5781247,-0.921875 0.02159,-0.194586 0.234375,-1.65625 0.234375,-1.656245 z"
              style="opacity:0.49557519;fill:#d97d0d;fill-opacity:1;stroke:none;filter:url(#filter5191)"></path>
    </g>
    <g transform="translate(-0.11315518,-0.06847538)" style="display:inline" id="layer7">
        <path transform="matrix(1.0196242,-0.82447891,0.98787297,1.1099847,-7.3452151,4.2897125)"
              d="M 9.8107358,4.8860099 A 0.54137862,0.57452428 0 0 1 9.2898181,5.4813909 0.54137862,0.57452428 0 0 1 8.7287244,4.9286507 0.54137862,0.57452428 0 0 1 9.2495091,4.3331388 0.54137862,0.57452428 0 0 1 9.8107262,4.8857379"
              id="path4712-9"
              style="display:inline;opacity:0.44396578;fill:#000000;fill-opacity:1;stroke:none;filter:url(#filter4893)"></path>
        <path transform="matrix(0.77759203,-0.62876914,0.66482233,0.74700152,0,0)"
              d="M 4.4868811,6.01039 A 0.70988733,0.8536973 0 0 1 3.8038233,6.8950786 0.70988733,0.8536973 0 0 1 3.0680844,6.0737508 0.70988733,0.8536973 0 0 1 3.7509679,5.1888676 0.70988733,0.8536973 0 0 1 4.4868686,6.0099857"
              id="path4712" style="fill:#ffffff;fill-opacity:1;stroke:none"></path>
        <path id="path4861"
              d="m 6.9928452,1.4145182 c 0,0 -0.1307588,0.107994 -0.1657281,0.182301 -0.0499,0.1060328 -0.058636,0.2311814 -0.049719,0.3480291 0.00966,0.1266233 0.055243,0.2817378 0.1104855,0.3646019 0.055243,0.082864 0.1491553,0.2762136 0.1767767,0.3148835 0.027621,0.03867 0.044194,0.1160097 0.044194,0.1160097 l 0.011049,0.033146 c 0,0 -0.088388,6e-7 -0.182301,-0.027621 C 6.8436897,2.7182469 6.7483544,2.6830446 6.6503404,2.6188094 6.5596638,2.5593829 6.404429,2.3874602 6.357554,2.3315473 6.3291614,2.2976803 6.285739,2.1326735 6.280214,2.0387609 6.274694,1.9448479 6.269165,1.7735959 6.324408,1.6796832 6.379651,1.5857702 6.4348934,1.5415764 6.528806,1.491858 6.622719,1.44214 6.7166312,1.40347 6.7442526,1.40347 c 0.027621,0 0.1673313,-0.010523 0.1325825,-0.027621 C 6.8370046,1.3562508 6.7884477,1.3261328 6.65034,1.370329 6.5122338,1.4145248 6.391647,1.471384 6.3364043,1.5321509 6.2811613,1.5929179 6.202874,1.7183581 6.1863012,1.7680766 c -0.016573,0.049718 -0.022097,0.055243 -0.022097,0.055243 0,0 -0.1164025,-0.017239 -0.1826936,-0.089059 -0.066291,-0.071821 -0.1626544,-0.127226 -0.1626544,-0.127226 l -0.085545,-0.082031 c 0,0 0.00552,0.071816 0.055243,0.1160097 0.049718,0.044194 0.090954,0.1139992 0.1682939,0.1692418 0.07734,0.055243 0.1686867,0.1401174 0.1686867,0.1401174 l 0.03867,0.03867 c 0,0 0.049718,0.033146 -0.055243,0.022097 C 6.0040006,2.000091 5.8897715,1.9863616 5.7958589,1.9311189 5.7019462,1.8758762 5.5675831,1.7735959 5.5399618,1.757023 c -0.027621,-0.016573 0.032983,0.072605 0.09927,0.144416 0.066291,0.071816 0.09867,0.060698 0.149318,0.104176 0.06858,0.058871 0.1026729,0.079906 0.1800127,0.1075269 0.07734,0.027621 0.1262381,0.046366 0.179065,0.074774 0.010385,0.00558 0.020511,0.012691 0.027621,0.022097 0.045784,0.060566 0.044194,0.1094226 0.088388,0.2099223 0.026777,0.060893 0.121419,0.1626548 0.2596407,0.2927864 0.061396,0.057803 0.3535534,0.2043981 0.4364175,0.2043981 0.082864,0 0.3076212,0.013382 0.386699,-0.027621 0.1491555,-0.07734 0.2310337,-0.1191846 0.3425049,-0.3038349 0.074066,-0.1226891 0.083983,-0.376249 0,-0.6076699 C 7.5961569,1.722436 7.4568841,1.574722 7.2303889,1.4697609 7.084689,1.4022415 7.0149423,1.3868968 7.0149423,1.3868968 Z"
              style="display:inline;fill:#000000;fill-opacity:1;stroke:none"></path>
        <path transform="matrix(0.81377119,-0.58118538,0.54442885,0.83880703,0,0)"
              d="M 5.2023617,5.835107 A 0.13726005,0.16712299 0 0 1 5.0702892,6.0082969 0.13726005,0.16712299 0 0 1 4.9280307,5.8475107 0.13726005,0.16712299 0 0 1 5.0600694,5.6742826 0.13726005,0.16712299 0 0 1 5.2023592,5.8350278"
              id="path4865" style="fill:#ffffff;fill-opacity:1;stroke:none"></path>
    </g>
    <g transform="translate(-0.11315518,-0.06847538)" style="display:inline" id="layer8">
        <path id="path4898"
              d="m 9.8129413,6.694649 c 0.3749997,0.34375 0.2187497,0.203125 0.3906247,0.6875 0.14779,0.416498 0.203125,1.0625 -0.0625,1.390625 -0.2241867,0.276936 -0.2315037,0.620749 -0.5440037,0.839499 -0.3125,0.21875 -1.909121,-0.292624 -2.409121,-0.292624 -0.5,0 -0.671875,0.03125 -1.453125,-0.3125 C 5.4904271,8.899618 4.7512201,8.776852 4.6254413,8.679024 4.4848163,8.569649 4.1841503,8.440398 4.0941913,8.194649 c -0.1019102,-0.278397 0.21875,-0.5 0.21875,-0.5 l 0,-0.234375 c 0,0 -0.03125,-0.078125 0,-0.265625 0.03125,-0.1875 0.09375,-0.25 0.1875,-0.375 0.09375,-0.125 0.09375,-0.09375 0.09375,-0.21875 0,-0.125 -0.044194,-0.073223 0,-0.25 0.0625,-0.25 0.020562,-0.1273233 0.28125,-0.25 0.265625,-0.125 0.3181951,-0.1799664 0.625,-0.09375 0.4243105,0.1192371 0.8071383,-0.1310121 1.1508883,-0.068512 0.34375,0.0625 0.9118171,0.4907825 1.5366117,0.4747621 0.609375,-0.015625 0.644531,-0.09687 1.0625,0 0.472136,0.1094233 0.5625,0.28125 0.5625,0.28125 z"
              style="fill:url(#radialGradient4908);fill-opacity:1;stroke:none;filter:url(#filter5257)"></path>
    </g>
    <g transform="translate(-0.11315518,-0.06847538)" style="display:inline" id="layer11">
        <path id="path5037"
              d="M 4.9247278,6.0235822 C 4.9122957,6.0914689 4.7021576,6.2486295 4.5614591,6.4276066 4.4493005,6.5702792 4.2507542,6.7710095 4.2107606,6.907238 4.1433526,7.1368478 4.5170208,7.4213161 4.410008,7.581173 4.31336,7.725548 4.0291038,7.739974 4.001978,7.996097 3.97304,8.269332 4.2915625,8.850367 4.432172,8.92782 c 0.5506191,0.303302 0.9216867,0.425858 1.4379074,0.608358 0.6288786,0.222328 1.2650509,0.487463 1.931028,0.524778 0.6324949,0.03544 1.3289099,0.02527 1.8781409,-0.290403 C 10.110884,9.522467 10.503678,9.09426 10.619429,8.610052 10.761351,8.016364 10.64946,7.2676198 10.234816,6.819649 9.5889243,6.1218446 8.0004413,6.022774 7.5004413,6.007149"
              style="opacity:0.16379311;fill:none;stroke:#ba6b0b;stroke-width:0.2;stroke-linecap:butt;stroke-linejoin:miter;stroke-miterlimit:4;stroke-dasharray:none;stroke-opacity:1;filter:url(#filter5507)"></path>
        <path id="path5211"
              d="m 9.9848163,6.913399 c 0,0 0.6249997,0.796875 0.8124997,1.15625 0.125005,0.359375 -0.140625,0.828125 -0.28125,1.046875 -0.140625,0.21875 -0.375,0.453125 -0.5,0.515625 -0.1249997,0.0625 -0.2973387,0.178587 -0.5312497,0.25 -0.40126,0.122505 -0.305043,0.05665 -1.140625,0.125 -0.5608438,0.04588 -1.3122816,-0.02246 -2.125,-0.3125 -0.4912638,-0.175319 -1.640625,-0.84375 -1.453125,-0.890625 0.1875,-0.04687 1.8179072,0.252914 3.234375,0.34375 0.916411,0.05877 1.354814,-0.497874 1.759236,-1.02607 0.3008457,-0.392919 0.225139,-1.208305 0.225139,-1.208305 z"
              style="opacity:0.24568966;fill:#d97d0d;fill-opacity:1;stroke:none;filter:url(#filter5511)"></path>
        <path id="path5421"
              d="m 4.3632919,7.761906 c 0.5303301,-0.04419 0.2430679,-0.06629 0.6408155,0 0.3977476,0.06629 1.016466,0.30936 1.016466,0.30936"
              style="opacity:0.21120689;fill:none;stroke:#d97d0d;stroke-width:0.2;stroke-linecap:butt;stroke-linejoin:miter;stroke-miterlimit:4;stroke-dasharray:none;stroke-opacity:1;filter:url(#filter5531)"></path>
        <path id="path5421-7"
              d="m 4.5936755,6.810887 c 0.5303301,-0.04419 0.2430679,-0.06629 0.6408155,0 0.3977476,0.06629 1.016466,0.30936 1.016466,0.30936"
              style="display:inline;opacity:0.375;fill:none;stroke:#d97d0d;stroke-width:0.2;stroke-linecap:butt;stroke-linejoin:miter;stroke-miterlimit:4;stroke-dasharray:none;stroke-opacity:1;filter:url(#filter5483)"></path>
    </g>
    <g transform="translate(-0.11315518,-0.06847538)" style="display:inline" id="layer4">
        <path id="path4050"
              d="m 8.1337593,1.399346 0.37123,0.3273573 c 0.0975,0.085975 0.178653,0.1891713 0.275739,0.2756123 0.09709,0.086441 0.204236,0.1644033 0.325998,0.209919 0.2079,0.077714 0.440177,0.053573 0.655771,8.375e-4 0.215595,-0.052735 0.3475517,-0.061091 0.5670097,-0.094259 0.06511,-0.00984 0.225326,-0.048627 0.290718,-0.040856 0.06539,0.00778 0.09705,0.018593 0.148823,0.059284 0.110336,0.070048 0.09486,0.1389833 0.08396,0.2502775 -0.02202,0.070238 -0.03547,0.1128527 -0.05046,0.169767 0.01519,0.02911 0.103843,0.095403 0.11847,0.1247984 0.01767,0.079915 0.02414,0.1441944 -0.01342,0.2334287 -0.08362,0.1956567 -0.133627,0.3302341 -0.254704,0.4986832 C 10.531815,3.582646 10.425927,3.7529256 10.306946,3.9228622 10.078483,4.2491668 9.8191753,4.5128493 9.6012223,4.7390287 L 8.5556703,4.5704534 C 8.4183743,4.548317 8.2403063,4.5367178 8.1020694,4.5215211 7.9638335,4.5063244 7.8615952,4.4899739 7.7391481,4.4240425 7.6205266,4.360171 7.5258734,4.2561212 7.4632199,4.1368519 7.3998942,4.016303 7.3679624,3.8784102 7.378752,3.7426687 7.3906636,3.5928115 7.4542492,3.4493557 7.5476877,3.331592 7.6383962,3.217269 7.755209,3.1270845 7.8678785,3.03433 7.9805479,2.9415756 8.0920596,2.8429483 8.1671183,2.7177925 c 0.05919,-0.098692 0.06556,-0.2061176 0.07601,-0.3207216 0.01045,-0.1146041 0.0022,-0.2796059 -0.01364,-0.393584 l -0.05706,-0.504704"
              style="fill:url(#linearGradient4060);fill-opacity:1;stroke:none"></path>
    </g>
    <g transform="translate(-0.11315518,-0.06847538)" style="display:inline" id="layer5">
        <path id="path4064" d="m 8.2592183,3.7434535 c 0.816567,0.3501627 1.8818477,-0.525367 2.5380977,-1.181617"
              style="fill:none;stroke:#000000;stroke-width:0.05;stroke-linecap:butt;stroke-linejoin:miter;stroke-miterlimit:4;stroke-dasharray:none;stroke-opacity:1;filter:url(#filter4657)"></path>
        <path id="path4234" d="m 9.1254413,3.1712115 c 0.257812,-0.0625 0.9921867,-0.4375 0.9921867,-0.4375"
              style="opacity:0.6;fill:none;stroke:#ffffff;stroke-width:0.1;stroke-linecap:butt;stroke-linejoin:miter;stroke-miterlimit:4;stroke-dasharray:none;stroke-opacity:1;filter:url(#filter4645)"></path>
        <path id="path4236" d="m 9.0513373,3.0355556 0.203125,-0.0625 0.7578127,-0.2578125"
              style="opacity:0.6;fill:none;stroke:#ffffff;stroke-width:0.1;stroke-linecap:butt;stroke-linejoin:miter;stroke-miterlimit:4;stroke-dasharray:none;stroke-opacity:1;filter:url(#filter4637)"></path>
        <path transform="matrix(0.98373862,0.17960603,-0.17960603,0.98373862,-0.73291024,-4.1810804)" id="path4238"
              d="M 9.96875,5.4296875 C 9.8125,5.6328125 9.8359375,5.6640625 9.8359375,5.6640625"
              style="opacity:0.6;fill:none;stroke:#ffffff;stroke-width:0.1;stroke-linecap:butt;stroke-linejoin:miter;stroke-miterlimit:4;stroke-dasharray:none;stroke-opacity:1;filter:url(#filter4653)"></path>
        <path id="path4240" d="M 8.3588323,3.8251347 C 9.1150373,4.0142616 9.7035663,3.5693274 10.078566,3.257149"
              style="opacity:0.6;fill:none;stroke:#ffffff;stroke-width:0.05;stroke-linecap:butt;stroke-linejoin:miter;stroke-miterlimit:4;stroke-dasharray:none;stroke-opacity:1;filter:url(#filter4649)"></path>
        <path id="path4714"
              d="m 8.1418933,1.431091 c 0,0 0.03867,0.1049612 0.04972,0.2320194 0.01105,0.1270583 0.02048,0.2940118 0.03058,0.4246987 0.01013,0.177562 0.0049,0.3757655 -0.05039,0.4917752 C 8.1165603,2.695594 8.0424569,2.8287318 7.9319714,2.9447415 7.821486,3.0607512 7.6327055,3.1893556 7.5562059,3.2852356 7.4802065,3.3804887 7.3745804,3.5069919 7.3635267,3.7224383 c -0.00405,0.078937 0.052159,0.457504 0.3125764,0.6594441 0.07234,0.056096 0.2878548,0.1444037 0.5536542,0.1514771 0.230603,0.00614 0.512552,0.071991 0.65827,0.09538 0.399657,0.06415 0.684653,0.1279626 0.684653,0.1279626"
              style="opacity:0.3;fill:none;stroke:#000000;stroke-width:0.02;stroke-linecap:butt;stroke-linejoin:miter;stroke-miterlimit:4;stroke-dasharray:none;stroke-opacity:1;filter:url(#filter4857)"></path>
        <path id="path4714-3"
              d="m 8.1635763,1.4694833 c 0,0 0.03867,0.1049612 0.04972,0.2320193 0.01105,0.1270583 0.01657,0.3369807 0.01105,0.4364175 -0.0055,0.099437 0.0361,0.3367031 -0.01914,0.4527126 -0.05524,0.1160097 -0.1410665,0.2764913 -0.2515529,0.392501 -0.110485,0.1160097 -0.3198052,0.2303843 -0.3874837,0.3326816 -0.068187,0.1030661 -0.169912,0.2412874 -0.1809605,0.456734 -0.011049,0.2154466 0.043639,0.1607591 0.043639,0.1607591"
              style="display:inline;opacity:0.3;fill:none;stroke:#ffffff;stroke-width:0.02;stroke-linecap:butt;stroke-linejoin:miter;stroke-miterlimit:4;stroke-dasharray:none;stroke-opacity:1;filter:url(#filter4841)"></path>
    </g>
</svg>
