<!-- Created with Inkscape (http://www.inkscape.org/) --><svg xmlns="http://www.w3.org/2000/svg" width="310" height="32" version="1.1" viewBox="0 0 82.021 8.4667"><g transform="matrix(1.0486 0 0 1.0486 -.38575 -.50777)" stroke-linecap="round"><g fill="#334084" stroke-linejoin="round" stroke-width=".50497" aria-label="Freie Zahnärzte Oberberg"><path d="m11.504 2.2467h2.7267v0.65631h-1.9749v1.1575h1.8615v0.63245h-1.8615v1.778h-0.75178zm2.9438 1.3604h0.68614v0.47732h0.01193q0.11933-0.25059 0.33412-0.40572 0.21479-0.15513 0.50118-0.15513 0.04177 0 0.0895 0.00597 0.04773 0 0.08353 0.011933v0.65631q-0.0716-0.017899-0.1253-0.023866-0.04773-0.00597-0.09546-0.00597-0.24462 0-0.39379 0.089497-0.14916 0.089497-0.23269 0.21479-0.08353 0.1253-0.11336 0.25656-0.02983 0.13126-0.02983 0.20883v1.5334h-0.71598zm3.8925 1.1456q0-0.13723-0.04176-0.26252-0.0358-0.1253-0.11933-0.22076-0.08353-0.095464-0.21479-0.14916-0.1253-0.059665-0.29832-0.059665-0.32219 0-0.54892 0.19689-0.22076 0.19093-0.24463 0.49522zm0.71598 0.32219q0 0.047732 0 0.095464t-6e-3 0.095464h-2.1778q0.01193 0.15513 0.07756 0.28639 0.0716 0.1253 0.18496 0.22076 0.11336 0.089497 0.25656 0.1432 0.1432 0.053698 0.29832 0.053698 0.26849 0 0.45345-0.095464 0.18496-0.10143 0.30429-0.27446l0.47732 0.38185q-0.42362 0.57278-1.2291 0.57278-0.33412 0-0.61455-0.10143-0.28042-0.1074-0.48925-0.29832-0.20286-0.19093-0.32219-0.46538-0.11336-0.28042-0.11336-0.63245 0-0.34606 0.11336-0.62648 0.11933-0.28639 0.32219-0.48328 0.20286-0.20286 0.47732-0.31026 0.28042-0.11336 0.60261-0.11336 0.29832 0 0.54892 0.10143 0.25656 0.095463 0.44152 0.29236 0.18496 0.19093 0.28639 0.48328 0.1074 0.28639 0.1074 0.67421zm0.51546-1.4678h0.71598v2.8639h-0.71598zm-0.10143-0.97253q0-0.17303 0.1253-0.29832 0.13126-0.13126 0.32816-0.13126 0.19689 0 0.32816 0.1253 0.13723 0.11933 0.13723 0.30429 0 0.18496-0.13723 0.31026-0.13126 0.11933-0.32816 0.11933-0.19689 0-0.32816-0.1253-0.1253-0.13126-0.1253-0.30429zm3.5166 2.1181q0-0.13723-0.04176-0.26252-0.0358-0.1253-0.11933-0.22076-0.08353-0.095464-0.21479-0.14916-0.1253-0.059665-0.29832-0.059665-0.32219 0-0.54892 0.19689-0.22076 0.19093-0.24462 0.49522zm0.71598 0.32219q0 0.047732 0 0.095464t-6e-3 0.095464h-2.1778q0.01193 0.15513 0.07756 0.28639 0.0716 0.1253 0.18496 0.22076 0.11336 0.089497 0.25656 0.1432 0.1432 0.053698 0.29832 0.053698 0.26849 0 0.45345-0.095464 0.18496-0.10143 0.30429-0.27446l0.47732 0.38185q-0.42362 0.57278-1.2291 0.57278-0.33412 0-0.61455-0.10143-0.28039-0.1074-0.48921-0.29832-0.20286-0.19093-0.32219-0.46538-0.11336-0.28042-0.11336-0.63245 0-0.34606 0.11336-0.62648 0.11933-0.28639 0.32219-0.48328 0.20286-0.20286 0.47732-0.31026 0.28042-0.11336 0.60261-0.11336 0.29832 0 0.54892 0.10143 0.25656 0.095463 0.44152 0.29236 0.18496 0.19093 0.28639 0.48328 0.1074 0.28639 0.1074 0.67421zm1.5858 0.71598 2.2971-2.8878h-2.2613v-0.65631h3.1563v0.68018l-2.309 2.8758h2.3448v0.66824h-3.2279zm5.3841 0.31622h-0.0179q-0.1074 0.19093-0.34606 0.31622-0.23866 0.11933-0.54295 0.11933-0.17303 0-0.36395-0.047732-0.18496-0.041765-0.34606-0.1432-0.15513-0.1074-0.26252-0.27446-0.10143-0.17303-0.10143-0.42362 0-0.32219 0.17899-0.51312 0.18496-0.19093 0.47135-0.29236t0.63245-0.13126q0.35202-0.035799 0.68614-0.035799v-0.071598q0-0.26849-0.19689-0.39379-0.19093-0.13126-0.45942-0.13126-0.22673 0-0.43555 0.095464-0.20883 0.095464-0.34606 0.23269l-0.36992-0.43555q0.24463-0.22673 0.56085-0.34009 0.32219-0.11336 0.65034-0.11336 0.38185 0 0.62648 0.1074 0.25059 0.1074 0.39379 0.28042t0.19689 0.38782q0.05966 0.21479 0.05966 0.42959v1.7422h-0.66824zm-0.01193-0.9427h-0.1611q-0.17303 0-0.36396 0.017899-0.19093 0.011933-0.35202 0.065631-0.1611 0.047732-0.26849 0.1432-0.1074 0.089497-0.1074 0.25059 0 0.10143 0.04177 0.17303 0.04773 0.065631 0.11933 0.1074 0.0716 0.041765 0.16109 0.059665 0.0895 0.017899 0.179 0.017899 0.36992 0 0.56085-0.19689t0.19093-0.53698zm2.9199-1.6408q0.28042 0 0.47732 0.10143 0.20286 0.095463 0.32816 0.25656 0.13126 0.16109 0.19093 0.36992 0.05967 0.20883 0.05967 0.42959v1.7899h-0.71598v-1.5751q0-0.1253-0.0179-0.25656-0.0179-0.13723-0.07756-0.24463-0.0537-0.11336-0.16109-0.18496-0.10143-0.071598-0.27446-0.071598t-0.29832 0.065631q-0.1253 0.065631-0.20883 0.17899-0.08353 0.1074-0.1253 0.24463-0.04176 0.13723-0.04176 0.28042v1.5632h-0.71599v-4.5107h0.71598v2.0465h0.01193q0.04176-0.089497 0.11933-0.17303 0.08353-0.089497 0.19093-0.15513 0.1074-0.071598 0.24463-0.11336 0.13723-0.041765 0.29832-0.041765zm1.7028 0.083531h0.68018v0.45942h0.01193q0.09546-0.21479 0.32816-0.37589 0.23866-0.16706 0.56085-0.16706 0.28042 0 0.47732 0.10143 0.20286 0.095463 0.32816 0.25656 0.13126 0.16109 0.19093 0.36992 0.05967 0.20883 0.05967 0.42959v1.7899h-0.71598v-1.5871q0-0.1253-0.0179-0.26252t-0.07756-0.24463q-0.05967-0.11336-0.16706-0.18496-0.10143-0.071598-0.27446-0.071598-0.17303 0-0.29832 0.071598-0.1253 0.065631-0.20883 0.17303-0.07756 0.1074-0.11933 0.25059-0.04176 0.13723-0.04176 0.28042v1.5751h-0.71598zm5.0619 2.5h-0.0179q-0.1074 0.19093-0.34606 0.31622-0.23866 0.11933-0.54295 0.11933-0.17303 0-0.36395-0.047732-0.18496-0.041765-0.34606-0.1432-0.15513-0.1074-0.26252-0.27446-0.10143-0.17303-0.10143-0.42362 0-0.32219 0.17899-0.51312 0.18496-0.19093 0.47135-0.29236 0.28639-0.10143 0.63245-0.13126 0.35202-0.035799 0.68614-0.035799v-0.071598q0-0.26849-0.19689-0.39379-0.19093-0.13126-0.45942-0.13126-0.22673 0-0.43555 0.095464-0.20883 0.095464-0.34606 0.23269l-0.36992-0.43555q0.24463-0.22673 0.56085-0.34009 0.32219-0.11336 0.65034-0.11336 0.38185 0 0.62648 0.1074 0.25059 0.1074 0.39379 0.28042t0.19689 0.38782q0.05966 0.21479 0.05966 0.42959v1.7422h-0.66824zm-0.01193-0.9427h-0.1611q-0.17303 0-0.36396 0.017899-0.19093 0.011933-0.35202 0.065631-0.1611 0.047732-0.26849 0.1432-0.1074 0.089497-0.1074 0.25059 0 0.10143 0.04176 0.17303 0.04773 0.065631 0.11933 0.1074 0.0716 0.041765 0.16109 0.059665 0.0895 0.017899 0.179 0.017899 0.36992 0 0.56085-0.19689t0.19093-0.53698zm-1.5811-2.5358q0-0.16706 0.11933-0.29236 0.11933-0.1253 0.30429-0.1253 0.18496 0 0.31026 0.11933t0.1253 0.29832-0.1253 0.29832-0.31026 0.11933q-0.18496 0-0.30429-0.1253-0.11933-0.1253-0.11933-0.29236zm1.1694 0q0-0.16706 0.11933-0.29236 0.11933-0.1253 0.30429-0.1253 0.18496 0 0.31026 0.11933t0.1253 0.29832-0.1253 0.29832-0.31026 0.11933q-0.18496 0-0.30429-0.1253-0.11933-0.1253-0.11933-0.29236zm1.7386 0.9785h0.68614v0.47732h0.01193q0.11933-0.25059 0.33412-0.40572 0.21479-0.15513 0.50118-0.15513 0.04177 0 0.0895 0.00597 0.04773 0 0.08353 0.011933v0.65631q-0.0716-0.017899-0.1253-0.023866-0.04773-0.00597-0.09546-0.00597-0.24463 0-0.39379 0.089497-0.14916 0.089497-0.23269 0.21479-0.08353 0.1253-0.11336 0.25656-0.02983 0.13126-0.02983 0.20883v1.5334h-0.71598zm1.7565 2.2315 1.5453-1.6587h-1.4737v-0.57278h2.3269v0.63245l-1.5513 1.6467h1.6229v0.58471h-2.4701zm2.5023-1.6587v-0.57278h0.50118v-0.82934h0.70404v0.82934h0.71598v0.57278h-0.71598v1.3305q0 0.19093 0.06563 0.31622 0.0716 0.1253 0.31026 0.1253 0.0716 0 0.15513-0.011933 0.08353-0.017899 0.14916-0.047732l0.02387 0.56085q-0.09546 0.035799-0.22673 0.053698-0.13126 0.023866-0.25059 0.023866-0.28639 0-0.46538-0.077564-0.179-0.08353-0.28639-0.22076-0.10143-0.1432-0.1432-0.32219-0.035799-0.18496-0.035799-0.39379v-1.3365zm4.2684 0.57278q0-0.13723-0.04176-0.26252-0.0358-0.1253-0.11933-0.22076-0.08353-0.095464-0.21479-0.14916-0.1253-0.059665-0.29832-0.059665-0.32219 0-0.54892 0.19689-0.22076 0.19093-0.24462 0.49522zm0.71598 0.32219q0 0.047732 0 0.095464t-6e-3 0.095464h-2.1778q0.01193 0.15513 0.07756 0.28639 0.0716 0.1253 0.18496 0.22076 0.11336 0.089497 0.25656 0.1432 0.1432 0.053698 0.29832 0.053698 0.26849 0 0.45345-0.095464 0.18496-0.10143 0.30429-0.27446l0.47732 0.38185q-0.42362 0.57278-1.2291 0.57278-0.33412 0-0.61455-0.10143-0.28042-0.1074-0.48925-0.29832-0.20286-0.19093-0.32219-0.46538-0.11336-0.28042-0.11336-0.63245 0-0.34606 0.11336-0.62648 0.11933-0.28639 0.32219-0.48328 0.20286-0.20286 0.47732-0.31026 0.28042-0.11336 0.60261-0.11336 0.29832 0 0.54892 0.10143 0.25656 0.095463 0.44152 0.29236 0.18496 0.19093 0.28639 0.48328 0.1074 0.28639 0.1074 0.67421z"/><path d="m57.018 4.3588q0 0.48328-0.16706 0.889t-0.46538 0.70404q-0.29236 0.29236-0.69808 0.45942-0.39975 0.16706-0.8711 0.16706t-0.87707-0.16706q-0.39975-0.16706-0.69808-0.45942-0.29236-0.29832-0.45942-0.70404t-0.16706-0.889q0-0.48328 0.16706-0.889 0.16706-0.40572 0.45942-0.69808 0.29832-0.29832 0.69808-0.46538 0.40572-0.16706 0.87707-0.16706t0.8711 0.16706q0.40572 0.16706 0.69808 0.46538 0.29832 0.29236 0.46538 0.69808 0.16706 0.40572 0.16706 0.889zm-0.45345 0q0-0.36992-0.11933-0.70404-0.11933-0.33412-0.34606-0.58471-0.22673-0.25656-0.55488-0.40572-0.32219-0.14916-0.72791-0.14916t-0.73388 0.14916q-0.32219 0.14916-0.54892 0.40572-0.22673 0.25059-0.34606 0.58471-0.11933 0.33412-0.11933 0.70404t0.11933 0.70404q0.11933 0.33412 0.34606 0.58471 0.22673 0.25059 0.54892 0.39975 0.32816 0.14916 0.73388 0.14916t0.72791-0.14916q0.32816-0.14916 0.55488-0.39975 0.22673-0.25059 0.34606-0.58471 0.11933-0.33412 0.11933-0.70404zm1.5536 1.6408v0.47135h-0.40572v-4.5107h0.40572v2.2016h0.01193q0.17899-0.27446 0.46538-0.41169 0.28639-0.1432 0.59068-0.1432 0.32816 0 0.59068 0.11336 0.26849 0.11336 0.45345 0.31026 0.19093 0.19689 0.29236 0.46538 0.1074 0.26849 0.1074 0.57875t-0.1074 0.57875q-0.10143 0.26849-0.29236 0.46538-0.18496 0.19689-0.45345 0.31026-0.26252 0.11336-0.59068 0.11336-0.30429 0-0.59068-0.13723-0.28639-0.13723-0.46538-0.40572zm2.0823-0.9248q0-0.23269-0.0716-0.43555-0.0716-0.20883-0.20883-0.35799-0.13126-0.15513-0.32816-0.24463-0.19689-0.089497-0.44748-0.089497-0.23269 0-0.42959 0.089497-0.19689 0.083531-0.34009 0.23866-0.1432 0.14916-0.22672 0.35799-0.07756 0.20286-0.07756 0.44152t0.07756 0.44749q0.08353 0.20286 0.22672 0.35202 0.1432 0.14916 0.34009 0.23866 0.19689 0.083531 0.42959 0.083531 0.25059 0 0.44748-0.083531 0.19689-0.089497 0.32816-0.23866 0.13723-0.15513 0.20883-0.35799 0.0716-0.20883 0.0716-0.44152zm3.2421-0.21479q-0.0179-0.39379-0.25656-0.65035-0.23269-0.26252-0.66824-0.26252-0.20286 0-0.37589 0.077564-0.17303 0.071598-0.30429 0.20286-0.13126 0.1253-0.20883 0.29236-0.07756 0.16109-0.0895 0.34009zm0.41169 0.13126q0 0.041765 0 0.089497t-6e-3 0.10143h-2.315q6e-3 0.20883 0.08353 0.39379 0.07756 0.18496 0.21479 0.32219 0.13723 0.13723 0.32219 0.22076 0.18496 0.077564 0.39975 0.077564 0.31622 0 0.54295-0.1432 0.23269-0.14916 0.35202-0.34009l0.30429 0.23866q-0.25059 0.31622-0.55488 0.45345-0.29832 0.13723-0.64438 0.13723-0.31026 0-0.57875-0.1074-0.26249-0.11336-0.45342-0.31026t-0.30429-0.46538q-0.1074-0.26849-0.1074-0.58471t0.1074-0.58471q0.1074-0.26849 0.29832-0.46538t0.44749-0.30429q0.25656-0.11336 0.55488-0.11336 0.32816 0 0.57875 0.11336 0.25059 0.1074 0.41765 0.29832 0.16706 0.18496 0.25059 0.43555 0.0895 0.25059 0.0895 0.53698zm0.68252-0.69808q0-0.11336-6e-3 -0.29236t-0.0179-0.32219h0.38782q0.01193 0.11336 0.0179 0.25059 6e-3 0.13723 6e-3 0.22673h0.01193q0.11933-0.24463 0.35799-0.39379 0.23866-0.15513 0.53698-0.15513 0.07756 0 0.13723 0.00597 0.06563 0.00597 0.13126 0.023866l-0.0537 0.38185q-0.0358-0.011933-0.11933-0.023866t-0.16706-0.011933q-0.16109 0-0.31026 0.059665t-0.26252 0.19093q-0.1074 0.1253-0.17899 0.32816-0.06563 0.19689-0.06563 0.47732v1.4319h-0.40572v-2.1778zm2.377 1.7064v0.47135h-0.40572v-4.5107h0.40572v2.2016h0.01193q0.17899-0.27446 0.46538-0.41169 0.28639-0.1432 0.59068-0.1432 0.32816 0 0.59068 0.11336 0.26849 0.11336 0.45345 0.31026 0.19093 0.19689 0.29236 0.46538 0.1074 0.26849 0.1074 0.57875t-0.1074 0.57875q-0.10143 0.26849-0.29236 0.46538-0.18496 0.19689-0.45345 0.31026-0.26252 0.11336-0.59068 0.11336-0.30429 0-0.59068-0.13723-0.28639-0.13723-0.46538-0.40572zm2.0823-0.9248q0-0.23269-0.0716-0.43555-0.0716-0.20883-0.20883-0.35799-0.13126-0.15513-0.32816-0.24463-0.19689-0.089497-0.44748-0.089497-0.23269 0-0.42959 0.089497-0.19689 0.083531-0.34009 0.23866-0.1432 0.14916-0.22672 0.35799-0.07756 0.20286-0.07756 0.44152t0.07756 0.44749q0.08353 0.20286 0.22672 0.35202 0.1432 0.14916 0.34009 0.23866 0.19689 0.083531 0.42959 0.083531 0.25059 0 0.44748-0.083531 0.19689-0.089497 0.32816-0.23866 0.13723-0.15513 0.20883-0.35799 0.0716-0.20883 0.0716-0.44152zm3.2421-0.21479q-0.0179-0.39379-0.25656-0.65035-0.23269-0.26252-0.66824-0.26252-0.20286 0-0.37589 0.077564-0.17303 0.071598-0.30429 0.20286-0.13126 0.1253-0.20883 0.29236-0.07756 0.16109-0.0895 0.34009zm0.41169 0.13126q0 0.041765 0 0.089497t-6e-3 0.10143h-2.315q6e-3 0.20883 0.08353 0.39379 0.07756 0.18496 0.21479 0.32219 0.13723 0.13723 0.32219 0.22076 0.18496 0.077564 0.39975 0.077564 0.31622 0 0.54295-0.1432 0.23269-0.14916 0.35202-0.34009l0.30429 0.23866q-0.25059 0.31622-0.55488 0.45345-0.29832 0.13723-0.64438 0.13723-0.31026 0-0.57875-0.1074-0.26249-0.11336-0.45342-0.31026t-0.30429-0.46538q-0.1074-0.26849-0.1074-0.58471t0.1074-0.58471q0.1074-0.26849 0.29832-0.46538t0.44748-0.30429q0.25656-0.11336 0.55488-0.11336 0.32816 0 0.57875 0.11336 0.25059 0.1074 0.41765 0.29832 0.16706 0.18496 0.25059 0.43555 0.0895 0.25059 0.0895 0.53698zm0.68252-0.69808q0-0.11336-6e-3 -0.29236t-0.0179-0.32219h0.38782q0.01193 0.11336 0.0179 0.25059 6e-3 0.13723 6e-3 0.22673h0.01193q0.11933-0.24463 0.35799-0.39379 0.23866-0.15513 0.53698-0.15513 0.07756 0 0.13723 0.00597 0.06563 0.00597 0.13126 0.023866l-0.0537 0.38185q-0.0358-0.011933-0.11933-0.023866t-0.16706-0.011933q-0.16109 0-0.31026 0.059665t-0.26252 0.19093q-0.1074 0.1253-0.17899 0.32816-0.06563 0.19689-0.06563 0.47732v1.4319h-0.40572v-2.1778zm2.0011 2.7386q0.16706 0.21479 0.45345 0.36395 0.29236 0.14916 0.61455 0.14916 0.29832 0 0.50715-0.089497 0.20883-0.083531 0.33412-0.23269 0.13126-0.14916 0.19093-0.35202 0.05966-0.19689 0.05966-0.42362v-0.52505h-0.01193q-0.16109 0.26252-0.45942 0.40572-0.29236 0.1432-0.59665 0.1432-0.32816 0-0.59665-0.1074-0.26252-0.1074-0.45345-0.29236-0.18496-0.19093-0.29236-0.45345-0.10143-0.26252-0.10143-0.56681 0-0.29832 0.10143-0.56085 0.1074-0.26252 0.29236-0.45942 0.19093-0.19689 0.45345-0.31026 0.26849-0.11336 0.59665-0.11336 0.30429 0 0.59665 0.1432t0.45942 0.41169h0.01193v-0.48328h0.40572v2.7684q0 0.22673-0.06563 0.48328-0.05966 0.25656-0.23269 0.47135-0.16706 0.21479-0.45942 0.35799-0.29236 0.1432-0.75774 0.1432-0.38782 0-0.73984-0.14916-0.35202-0.14916-0.60261-0.41169zm0.07756-1.9928q0 0.22076 0.0716 0.41765t0.20286 0.34606q0.13723 0.14916 0.33412 0.23866 0.19689 0.083531 0.44749 0.083531 0.23269 0 0.42958-0.077564 0.19689-0.077564 0.34009-0.22076 0.1432-0.1432 0.22076-0.34009 0.08353-0.20286 0.08353-0.44749 0-0.22076-0.08353-0.41765-0.07756-0.19689-0.22076-0.34606-0.1432-0.14916-0.34009-0.23866-0.19689-0.089497-0.42958-0.089497-0.25059 0-0.44749 0.089497-0.19689 0.089497-0.33412 0.23866-0.13126 0.14916-0.20286 0.34606-0.0716 0.19689-0.0716 0.41765z"/></g><rect x="1.7239" y="2.7029" width="1.2498" height=".71287" ry=".28177" fill="#98af30" stroke-width="12.228"/><path d="m0.77891 8.1478v-5.3232c0-0.45908 0.16327-0.92793 0.46063-1.2633 0.32519-0.36678 0.84493-0.66497 1.3113-0.66562 0.46635-6.55e-4 3.0087 0 3.0087 0l-2.8029 4.4066 2.8018-0.0051" fill="none" stroke="#98af30" stroke-linejoin="round" stroke-width=".82205"/><path d="m8.0606 3.8258a3.1427 3.2232 0 0 1-1.3479 3.8633 3.1427 3.2232 0 0 1-3.9541-0.62433" fill="none" stroke="#98af30" stroke-linejoin="round" stroke-width=".82205"/><rect x="5.5272" y="2.7029" width="1.2498" height=".71287" ry=".28177" fill="#98af30" stroke-width="12.228"/></g></svg>